<svg width="37" height="36" viewBox="0 0 37 36" fill="none" xmlns="http://www.w3.org/2000/svg">
<path d="M31.3429 2.79649C28.2854 0.993094 24.2492 0 19.978 0H16.4595C12.1884 0 8.15212 0.993094 5.09463 2.79649C1.80933 4.73421 0 7.38908 0 10.272V11.647H36.4375V10.272C36.4375 7.38908 34.6282 4.73421 31.3429 2.79649ZM2.99063 8.89702C4.2069 5.44913 9.88152 2.75 16.4597 2.75H19.9781C26.5563 2.75 32.2309 5.44913 33.4472 8.89702H2.99063ZM0 21.272H36.4375V24.022H0V21.272ZM29.15 14.4004C27.02 14.4004 25.9041 14.9267 24.9196 15.3911C24.0573 15.7979 23.3761 16.1191 21.8622 16.1191C20.3484 16.1191 19.6674 15.7979 18.8051 15.3911C17.8206 14.9271 16.7047 14.4004 14.5748 14.4004C12.445 14.4004 11.3291 14.9267 10.3446 15.3911C9.48234 15.7979 8.80137 16.1191 7.28759 16.1191C5.7738 16.1191 5.09274 15.7979 4.23053 15.3911C3.24603 14.9271 2.13013 14.4004 0.000257671 14.4004V17.1504C1.51405 17.1504 2.1951 17.4716 3.05731 17.8784C4.04181 18.3424 5.15771 18.8691 7.28759 18.8691C9.41746 18.8691 10.5333 18.3428 11.5178 17.8784C12.38 17.4716 13.061 17.1504 14.5748 17.1504C16.0886 17.1504 16.7697 17.4716 17.6319 17.8784C18.6165 18.3424 19.7323 18.8691 21.8622 18.8691C23.9922 18.8691 25.1081 18.3428 26.0927 17.8784C26.955 17.4716 27.636 17.1504 29.15 17.1504C30.664 17.1504 31.345 17.4716 32.2073 17.8784C33.1919 18.3424 34.3078 18.8691 36.4378 18.8691V16.1191C34.9238 16.1191 34.2427 15.7979 33.3804 15.3911C32.3956 14.9267 31.2797 14.4004 29.15 14.4004ZM0 33.647C0.000636835 34.1938 0.21814 34.7181 0.604796 35.1047C0.991451 35.4914 1.51569 35.7089 2.0625 35.7095H34.375C34.9218 35.7089 35.446 35.4914 35.8327 35.1047C36.2194 34.7181 36.4369 34.1938 36.4375 33.647V26.772H0V33.647ZM2.75 29.522H33.6875V32.9595H2.75V29.522Z" fill="#FFF8F8"/>
</svg>
